<svg xmlns="http://www.w3.org/2000/svg" xmlns:xlink="http://www.w3.org/1999/xlink" width="24" height="24" viewBox="0 0 24 24">
    <defs>
        <path id="a" d="M12 10V7.707l-.146.147a.5.5 0 0 1-.708-.708l1-1A.5.5 0 0 1 13 6.5V10h.5a.5.5 0 1 1 0 1h-2a.5.5 0 1 1 0-1h.5zM7 4.086v8.793l1.024-.273a8.242 8.242 0 0 1 5.369.388 6.242 6.242 0 0 0 4.068.295l.54-.143-.025-8.752a8.242 8.242 0 0 1-5.368-.388 6.242 6.242 0 0 0-4.069-.295l-1.281.341A1.001 1.001 0 0 1 7 4.086zm0-2.035l1.024-.273a8.242 8.242 0 0 1 5.369.388 6.242 6.242 0 0 0 4.068.295l1.282-.341A1 1 0 0 1 20 3.086v10.828a1 1 0 0 1-.742.966l-1.282.342a8.242 8.242 0 0 1-5.368-.388 6.242 6.242 0 0 0-4.069-.295l-1.281.341a1.001 1.001 0 0 1-.258.034V21a1 1 0 0 1 0 2H5a1 1 0 0 1 0-2V2a1 1 0 1 1 2 0v.051z"/>
    </defs>
    <use fill="inherit" fill-opacity="1" fill-rule="evenodd" xlink:href="#a"/>
</svg>
