<svg xmlns="http://www.w3.org/2000/svg" width="24" height="24" viewBox="0 0 24 24">
    <path fill="inherit" fill-opacity="1" fill-rule="evenodd" d="M5.533 19c-1.757 0-3.075-.557-4.076-1.436A1.376 1.376 0 0 1 1 16.576c0-.718.597-1.329 1.3-1.329.387 0 .65.162.86.341.704.61 1.441.934 2.408.934 1.019 0 1.739-.592 1.739-1.526v-.036c0-1.024-.896-1.598-2.407-1.598h-.422c-.632 0-1.159-.539-1.159-1.185 0-.377.158-.7.58-1.131l2.389-2.46H2.51c-.633 0-1.16-.539-1.16-1.185 0-.647.527-1.186 1.16-1.186H8.5c.791 0 1.37.467 1.37 1.221 0 .683-.315 1.06-.807 1.545l-2.407 2.352c1.669.287 3.303 1.185 3.303 3.52v.035C9.96 17.258 8.273 19 5.533 19zm12.214 0c-3.83 0-6.465-2.747-6.465-6.464V12.5c0-3.573 2.723-6.5 6.448-6.5 1.862 0 3.092.43 4.198 1.221.264.198.563.575.563 1.113 0 .754-.598 1.365-1.336 1.365a1.3 1.3 0 0 1-.825-.287c-.738-.54-1.529-.862-2.688-.862-1.968 0-3.531 1.777-3.531 3.914v.036c0 2.298 1.546 3.986 3.724 3.986.984 0 1.862-.251 2.547-.754v-1.796h-1.827c-.65 0-1.177-.52-1.177-1.185a1.19 1.19 0 0 1 1.177-1.203h3.092c.756 0 1.353.61 1.353 1.383v3.052c0 .808-.299 1.365-.949 1.76A8.053 8.053 0 0 1 17.747 19z"/>
</svg>
