<svg xmlns="http://www.w3.org/2000/svg" xmlns:xlink="http://www.w3.org/1999/xlink" width="24" height="24" viewBox="0 0 24 24">
    <defs>
        <path id="a" d="M20 19c0 .551-.448 1-1 1H5c-.552 0-1-.449-1-1V5c0-.551.448-1 1-1h14c.552 0 1 .449 1 1v14zM19 2c1.654 0 3 1.346 3 3v14c0 1.654-1.346 3-3 3H5c-1.654 0-3-1.346-3-3V5c0-1.654 1.346-3 3-3h14zm-3 9h-3V8a1 1 0 1 0-2 0v3H8a1 1 0 1 0 0 2h3v3a1 1 0 1 0 2 0v-3h3a1 1 0 1 0 0-2z"/>
    </defs>
    <use fill="inherit" fill-opacity="1" fill-rule="evenodd" xlink:href="#a"/>
</svg>
