<svg xmlns="http://www.w3.org/2000/svg" xmlns:xlink="http://www.w3.org/1999/xlink" width="24" height="24" viewBox="0 0 24 24">
    <defs>
        <path id="a" d="M18.571 16.56a7.945 7.945 0 0 1-5.15 3.308 7.946 7.946 0 0 1-5.982-1.302 7.947 7.947 0 0 1-3.31-5.15 7.951 7.951 0 0 1 1.302-5.983A7.999 7.999 0 0 1 12.013 4c1.574 0 3.164.462 4.552 1.426a7.946 7.946 0 0 1 3.31 5.151 7.95 7.95 0 0 1-1.304 5.983m3.271-6.338a9.934 9.934 0 0 1-1.628 7.48 9.93 9.93 0 0 1-6.438 4.134 9.92 9.92 0 0 1-7.478-1.627 9.93 9.93 0 0 1-4.137-6.438A9.932 9.932 0 0 1 3.79 6.292C6.933 1.763 13.177.638 17.705 3.783a9.932 9.932 0 0 1 4.137 6.438zm-5.84.775h-3v-3a1 1 0 1 0-2 0v3h-3a1 1 0 1 0 0 2h3v3a1 1 0 1 0 2 0v-3h3a1 1 0 1 0 0-2z"/>
    </defs>
    <use fill="inherit" fill-opacity="1" fill-rule="evenodd" xlink:href="#a"/>
</svg>
