<svg xmlns="http://www.w3.org/2000/svg" xmlns:xlink="http://www.w3.org/1999/xlink" width="24" height="24" viewBox="0 0 24 24">
    <defs>
        <path id="a" d="M12.537 4.925v5.256l3.214-2.996-3.214-2.26zm0 8.87v5.278l3.224-2.268-3.224-3.01zm-1 8.204a1.001 1.001 0 0 1-1-1V14.78l-3.176 2.96a.998.998 0 1 1-1.363-1.462l4.54-4.232v-.117l-4.72-4.405a1.002 1.002 0 0 1 1.366-1.463l3.353 3.132V3a.999.999 0 0 1 1.575-.818l5.798 4.076a1 1 0 0 1 .106 1.55l-4.484 4.181 4.494 4.195c.22.206.336.5.316.801a1.01 1.01 0 0 1-.423.75l-5.807 4.084c-.172.12-.373.181-.575.181z"/>
    </defs>
    <use fill="inherit" fill-opacity="1" fill-rule="evenodd" xlink:href="#a"/>
</svg>
