<svg xmlns="http://www.w3.org/2000/svg" xmlns:xlink="http://www.w3.org/1999/xlink" width="24" height="24" viewBox="0 0 24 24">
    <defs>
        <path id="a" d="M20.345 18.998a.985.985 0 0 1-.866.5H4.504a.985.985 0 0 1-.866-.5.982.982 0 0 1 0-1L11.123 5v.001a.985.985 0 0 1 .867-.501c.174 0 .607.049.868.5l7.487 12.998c.26.452.086.85 0 1M22.077 17c.541.939.54 2.061-.002 2.999a2.97 2.97 0 0 1-2.597 1.499H4.504a2.97 2.97 0 0 1-2.597-1.499A2.971 2.971 0 0 1 1.905 17L9.392 4.002a2.968 2.968 0 0 1 2.6-1.502c1.085 0 2.057.561 2.6 1.502L22.077 17zM10.992 9.998v4a1 1 0 1 0 2 0v-4a1 1 0 1 0-2 0zm1 6a1 1 0 1 0 0 2 1 1 0 0 0 0-2z"/>
    </defs>
    <use fill="inherit" fill-opacity="1" fill-rule="evenodd" xlink:href="#a"/>
</svg>
