<svg xmlns="http://www.w3.org/2000/svg" xmlns:xlink="http://www.w3.org/1999/xlink" width="24" height="24" viewBox="0 0 24 24">
    <defs>
        <path id="a" d="M20.55 20.705c-.774.696-2.062.61-2.868-.194L11.79 14.62a1.001 1.001 0 0 0-.565-.283l-6.082-.87a1.044 1.044 0 0 1-.863-.768l-1.362-4.83 2.86 2.86c.292.29.727.374 1.102.213l2.092-.896a2.031 2.031 0 0 0 1.073-1.072l.897-2.092a1 1 0 0 0-.212-1.101L7.99 3.043 12.7 4.28c.408.108.708.446.768.863l.868 6.082c.03.213.13.412.283.565l6.01 6.01c.393.392.6.913.586 1.467a1.99 1.99 0 0 1-.664 1.437m1.493-4.317a4.011 4.011 0 0 1 1.17 2.932 3.965 3.965 0 0 1-1.325 2.87 3.89 3.89 0 0 1-2.62.995 4.248 4.248 0 0 1-3.001-1.26l-5.655-5.656-5.752-.821a3.037 3.037 0 0 1-2.513-2.24L1.064 8.333a1.953 1.953 0 0 1 3.269-1.878l2.383 2.383 1.47-.63.649-1.494-2.381-2.381c-.761-.761-.761-2 0-2.761a1.962 1.962 0 0 1 1.877-.508l4.878 1.284a3.034 3.034 0 0 1 2.239 2.513l.82 5.75 5.776 5.777zm-3.535 2.12a.999.999 0 1 0 1.414 1.414.999.999 0 1 0-1.414-1.414z"/>
    </defs>
    <use fill="inherit" fill-opacity="1" fill-rule="evenodd" xlink:href="#a"/>
</svg>
