<svg xmlns="http://www.w3.org/2000/svg" xmlns:xlink="http://www.w3.org/1999/xlink" width="24" height="24" viewBox="0 0 24 24">
    <defs>
        <path id="a" d="M20 14.9c0 .262-.106.52-.293.706l-4.101 4.101a1.008 1.008 0 0 1-.707.293H9.101c-.263 0-.521-.107-.707-.293l-1.343-1.344L18.363 7.05l1.344 1.343c.187.187.293.444.293.707v5.8zm-16 0V9.1c0-.263.106-.52.293-.707l4.101-4.1C8.58 4.106 8.838 4 9.101 4h5.798c.263 0 .521.106.707.293l1.343 1.343L5.637 16.95l-1.344-1.343A1.003 1.003 0 0 1 4 14.9zm17.121-7.92l-4.1-4.102A2.985 2.985 0 0 0 14.899 2H9.101c-.801 0-1.555.312-2.122.878l-4.1 4.101A2.982 2.982 0 0 0 2 9.1v5.8c0 .8.313 1.554.879 2.12l4.1 4.101a2.986 2.986 0 0 0 2.122.88h5.798c.801 0 1.555-.314 2.122-.88l4.1-4.1c.566-.567.879-1.32.879-2.122V9.1c0-.8-.313-1.555-.879-2.12z"/>
    </defs>
    <use fill="inherit" fill-opacity="1" fill-rule="evenodd" xlink:href="#a"/>
</svg>
