<svg xmlns="http://www.w3.org/2000/svg" xmlns:xlink="http://www.w3.org/1999/xlink" width="24" height="24" viewBox="0 0 24 24">
    <defs>
        <path id="a" d="M10 10V8.665C10 7.81 10.54 7 11.443 7h1.114C13.46 7 14 7.81 14 8.665V10h4.246C19.789 10 21 11.332 21 12.93V21h1a1 1 0 0 1 0 2H2a1 1 0 0 1 0-2h1v-8.07C3 11.331 4.211 10 5.754 10H10zm3 2H5.754c-.393 0-.754.397-.754.93V21h14v-8.07c0-.533-.36-.93-.754-.93H13zm-8 2.615c.363.14.661.41 1.039.851.373.435.516.534.816.534.262 0 .418-.089.663-.358.042-.046.076-.086.155-.178.593-.689.989-.964 1.753-.964.765 0 1.162.276 1.754.966.373.435.516.534.817.534.301 0 .444-.099.816-.534.589-.689.988-.966 1.753-.966.766 0 1.162.275 1.757.967.37.434.514.533.815.533.302 0 .446-.099.82-.534.377-.44.676-.713 1.042-.852v2.658c-.529.493-1.054.728-1.862.728-1.047 0-1.62-.395-2.334-1.232-.244-.284-.221-.268-.238-.268-.014 0 .008-.016-.233.265-.719.842-1.29 1.235-2.336 1.235-1.046 0-1.617-.393-2.336-1.234-.242-.282-.22-.266-.235-.266-.015 0 .007-.016-.235.265-.09.106-.134.156-.193.222C8.409 17.635 7.768 18 6.855 18c-.805 0-1.329-.234-1.855-.724v-2.66zM13.75 4.09C13.75 5.106 13.014 6 12 6c-1.015 0-1.75-.893-1.75-1.911 0-.352.114-.697.31-1.103a8.97 8.97 0 0 1 .618-1.054 1 1 0 0 1 1.645 0 8.97 8.97 0 0 1 .618 1.054c.195.406.309.75.309 1.103z"/>
    </defs>
    <use fill="inherit" fill-opacity="1" fill-rule="evenodd" xlink:href="#a"/>
</svg>
