<svg xmlns="http://www.w3.org/2000/svg" xmlns:xlink="http://www.w3.org/1999/xlink" width="24" height="24" viewBox="0 0 24 24">
    <defs>
        <path id="a" d="M20 17a1 1 0 0 1-1 1h-2a.996.996 0 0 0-.707.293L14.5 20.086l-1.793-1.793A.996.996 0 0 0 12 18H5a1 1 0 0 1-1-1V5a1 1 0 0 1 1-1h14a1 1 0 0 1 1 1v12zM19 2c1.654 0 3 1.346 3 3v12c0 1.654-1.346 3-3 3h-1.586l-1.5 1.5c-.39.39-.902.585-1.414.585a1.993 1.993 0 0 1-1.414-.585l-1.5-1.5H5c-1.654 0-3-1.346-3-3V5c0-1.654 1.346-3 3-3h14zm-2 6H7a1 1 0 1 0 0 2h10a1 1 0 1 0 0-2zm-4 4H7a1 1 0 1 0 0 2h6a1 1 0 1 0 0-2z"/>
    </defs>
    <use fill="inherit" fill-opacity="1" fill-rule="evenodd" xlink:href="#a"/>
</svg>
