<svg xmlns="http://www.w3.org/2000/svg" xmlns:xlink="http://www.w3.org/1999/xlink" width="24" height="24" viewBox="0 0 24 24">
    <defs>
        <path id="a" d="M17.756 8.905l-6.5 7.5a1.002 1.002 0 0 1-.72.344l-.036.001c-.265 0-.52-.106-.707-.293l-3.5-3.5a.999.999 0 1 1 1.414-1.414l2.74 2.74 5.797-6.689a1.001 1.001 0 0 1 1.512 1.311M18 3H6C4.346 3 3 4.345 3 6v12c0 1.654 1.346 3 3 3h12c1.654 0 3-1.346 3-3V6c0-1.655-1.346-3-3-3"/>
    </defs>
    <use fill="inherit" fill-opacity="1" fill-rule="evenodd" xlink:href="#a"/>
</svg>
