<svg xmlns="http://www.w3.org/2000/svg" xmlns:xlink="http://www.w3.org/1999/xlink" width="24" height="24" viewBox="0 0 24 24">
    <defs>
        <path id="a" d="M19.386 17.135a8.943 8.943 0 0 1-5.794 3.723 8.938 8.938 0 0 1-6.73-1.465c-4.075-2.83-5.087-8.449-2.258-12.525a8.943 8.943 0 0 1 5.795-3.723 8.932 8.932 0 0 1 6.73 1.465c4.075 2.831 5.088 8.45 2.257 12.525M18.27 2.967c4.98 3.46 6.219 10.327 2.759 15.31a10.92 10.92 0 0 1-7.082 4.548 10.915 10.915 0 0 1-8.225-1.79C.74 17.576-.498 10.71 2.96 5.728a10.927 10.927 0 0 1 7.083-4.552 10.94 10.94 0 0 1 8.226 1.791zm-1.904 11.106l-4.37-1.748V8.002a1 1 0 1 0-2 0v5l.001.009c.001.1.028.195.058.289.01.03.008.065.02.094.02.047.06.083.086.126.041.066.074.136.13.19.018.019.047.029.067.047.08.066.161.129.258.169.003 0 .005.003.008.004l5 2a1.002 1.002 0 0 0 1.3-.557 1 1 0 0 0-.558-1.3z"/>
    </defs>
    <use fill="inherit" fill-opacity="1" fill-rule="evenodd" xlink:href="#a"/>
</svg>
