<svg xmlns="http://www.w3.org/2000/svg" xmlns:xlink="http://www.w3.org/1999/xlink" width="24" height="24" viewBox="0 0 24 24">
    <defs>
        <path id="a" d="M16 2a1 1 0 0 1-1 1H5a1 1 0 0 0-1 1v11a1 1 0 1 1-2 0V4c0-1.654 1.346-3 3-3h10a1 1 0 0 1 1 1zm3 3c1.654 0 3 1.346 3 3v12c0 1.654-1.346 3-3 3H9c-1.654 0-3-1.346-3-3V8c0-1.654 1.346-3 3-3h10zm1 15V8a1 1 0 0 0-1-1H9a1 1 0 0 0-1 1v12a1 1 0 0 0 1 1h10a1 1 0 0 0 1-1z"/>
    </defs>
    <use fill="inherit" fill-opacity="1" fill-rule="evenodd" xlink:href="#a"/>
</svg>
