<svg xmlns="http://www.w3.org/2000/svg" xmlns:xlink="http://www.w3.org/1999/xlink" width="24" height="24" viewBox="0 0 24 24">
    <defs>
        <path id="a" d="M21 19c0 1.103-.897 2-2 2H5c-1.103 0-2-.897-2-2V5c0-1.103.897-2 2-2h14c1.103 0 2 .897 2 2v14zM19 1c2.206 0 4 1.794 4 4v14c0 2.206-1.794 4-4 4H5c-2.206 0-4-1.794-4-4V5c0-2.206 1.794-4 4-4h14zM8.741 14.123c-1.177 0-1.928-.949-1.928-2.123v-.027c0-1.132.768-2.094 1.843-2.094.766 0 1.248.331 1.73.848l1.32-1.435C10.993 8.488 10.103 8 8.668 8c-2.324 0-3.982 1.809-3.982 4v.029C4.687 14.223 6.36 16 8.643 16c1.515 0 2.365-.588 3.103-1.405l-1.262-1.288c-.52.5-1.02.816-1.743.816zM15.342 8c-.987 0-1.789.287-2.426.773l.553 1.767c.596-.56 1.122-.788 1.844-.788.964 0 1.645.514 1.86 1.505H13.13s-1.544.002-1.153 1.77c.034.147.072.284.111.413a4.634 4.634 0 0 0 .116.324C12.717 15.06 13.812 16 15.555 16c.701 0 1.335-.406 1.874-.96v.775h1.883l-.008-3.823a.474.474 0 0 0 .008-.019c0-2.35-1.689-3.973-3.97-3.973zm.233 6.537l-1.738-1.443.487-.58h2.502l.488.58-1.739 1.443z"/>
    </defs>
    <use fill="inherit" fill-opacity="1" fill-rule="evenodd" xlink:href="#a"/>
</svg>
