<svg xmlns="http://www.w3.org/2000/svg" xmlns:xlink="http://www.w3.org/1999/xlink" width="24" height="24" viewBox="0 0 24 24">
    <defs>
        <path id="a" d="M18 20a1 1 0 0 1-1 1H7a1 1 0 0 1-1-1V7h12v13zM9.5 5h5V3h-5v2zM21 5a1 1 0 1 1 0 2h-1v13c0 1.654-1.346 3-3 3H7c-1.654 0-3-1.346-3-3V7H3a1 1 0 1 1 0-2h4.5V2a1 1 0 0 1 1-1h7a1 1 0 0 1 1 1v3H21zM10 9a1 1 0 0 0-1 1v8a1 1 0 1 0 2 0v-8a1 1 0 0 0-1-1zm3 1v8a1 1 0 1 0 2 0v-8a1 1 0 1 0-2 0z"/>
    </defs>
    <use fill="inherit" fill-opacity="1" fill-rule="evenodd" xlink:href="#a"/>
</svg>
