<svg xmlns="http://www.w3.org/2000/svg" xmlns:xlink="http://www.w3.org/1999/xlink" width="24" height="24" viewBox="0 0 24 24">
    <defs>
        <path id="cl-edit" d="M18.85 8.12l-1.414 1.415-2.829-2.83 1.414-1.413a1.002 1.002 0 0 1 1.415 0l1.414 1.414c.39.39.39 1.024 0 1.415zM7.829 19.143H5v-2.83l8.193-8.192 2.829 2.829-8.193 8.193zm12.435-13.85L18.85 3.878a3.003 3.003 0 0 0-4.243 0l-2.121 2.12-9.193 9.193a1.003 1.003 0 0 0-.293.707v4.244a1 1 0 0 0 1 1h4.244c.265 0 .519-.106.707-.293l9.192-9.193 2.121-2.121a3.003 3.003 0 0 0 0-4.243z"/>
    </defs>
    <g fill-rule="evenodd">
        <path fill="#D8D8D8" fill-opacity="0" d="M0 0h24v24H0z"/>
        <use fill="inherit" fill-opacity="1" xlink:href="#cl-edit"/>
    </g>
</svg>
