<svg xmlns="http://www.w3.org/2000/svg" xmlns:xlink="http://www.w3.org/1999/xlink" width="24" height="24" viewBox="0 0 24 24">
    <defs>
        <path id="a" d="M20 13a1 1 0 0 1 1 1v4c0 1.654-1.346 3-3 3H6c-1.654 0-3-1.346-3-3V6c0-1.654 1.346-3 3-3h4a1 1 0 1 1 0 2H6c-.552 0-1 .449-1 1v12c0 .551.448 1 1 1h12c.552 0 1-.449 1-1v-4a1 1 0 0 1 1-1zm-.963-10C20.12 3 21 3.88 21 4.963V9a1 1 0 1 1-2 0V6.414l-8.293 8.293a.997.997 0 0 1-1.414 0 .999.999 0 0 1 0-1.414l8.317-8.317L15 5a1 1 0 1 1 0-2h4.037z"/>
    </defs>
    <use fill="inherit" fill-opacity="1" fill-rule="evenodd" xlink:href="#a"/>
</svg>
