<svg xmlns="http://www.w3.org/2000/svg" xmlns:xlink="http://www.w3.org/1999/xlink" width="24" height="24" viewBox="0 0 24 24">
    <defs>
        <path id="a" d="M10 5a1 1 0 1 1 0 2 1 1 0 1 1 0-2M4 7a1 1 0 1 1 0-2h3.185A2.995 2.995 0 0 1 10 3c1.302 0 2.401.839 2.815 2H20a1 1 0 1 1 0 2h-7.185A2.995 2.995 0 0 1 10 9a2.995 2.995 0 0 1-2.815-2H4zm16 4a1 1 0 1 1 0 2h-1.185A2.995 2.995 0 0 1 16 15a2.995 2.995 0 0 1-2.815-2H4a1 1 0 1 1 0-2h9.185A2.995 2.995 0 0 1 16 9c1.302 0 2.401.839 2.815 2H20zm0 6a1 1 0 1 1 0 2h-9.185A2.995 2.995 0 0 1 8 21a2.995 2.995 0 0 1-2.815-2H4a1 1 0 1 1 0-2h1.185A2.995 2.995 0 0 1 8 15c1.302 0 2.401.839 2.815 2H20zm-4-4a1 1 0 1 0 0-2 1 1 0 1 0 0 2zm-8 6a1 1 0 1 0 0-2 1 1 0 1 0 0 2z"/>
    </defs>
    <use fill="inherit" fill-opacity="1" fill-rule="evenodd" xlink:href="#a"/>
</svg>
