<svg xmlns="http://www.w3.org/2000/svg" xmlns:xlink="http://www.w3.org/1999/xlink" width="24" height="24" viewBox="0 0 24 24">
    <defs>
        <path id="a" d="M19.389 17.128a8.985 8.985 0 0 1-12.11 2.514 1.002 1.002 0 0 0-.658-.14l-2.46.329.328-2.441c.03-.23-.02-.463-.141-.659a9 9 0 0 1 .259-9.87c2.83-4.074 8.447-5.087 12.525-2.257a8.945 8.945 0 0 1 3.723 5.795 8.936 8.936 0 0 1-1.466 6.73m3.434-7.086a10.928 10.928 0 0 1-1.791 8.227 10.974 10.974 0 0 1-9.03 4.718c-1.862 0-3.745-.473-5.461-1.457l-3.41.456a1.002 1.002 0 0 1-1.124-1.124l.453-3.393a10.998 10.998 0 0 1 .504-11.748C6.422.741 13.29-.499 18.273 2.961a10.926 10.926 0 0 1 4.55 7.082zm-13.825.452a1 1 0 1 0 0-2 1 1 0 0 0 0 2zm6.182-.016a1.001 1.001 0 1 0-.365-1.97 1.001 1.001 0 0 0 .365 1.97zm-.182 1.516a1 1 0 0 0-1 1c0 1.103-.897 2-2 2s-2-.897-2-2a1 1 0 1 0-2 0c0 2.206 1.794 4 4 4s4-1.794 4-4a1 1 0 0 0-1-1z"/>
    </defs>
    <use fill="inherit" fill-opacity="1" fill-rule="evenodd" xlink:href="#a"/>
</svg>
