<svg xmlns="http://www.w3.org/2000/svg" xmlns:xlink="http://www.w3.org/1999/xlink" width="24" height="24" viewBox="0 0 24 24">
    <defs>
        <path id="a" d="M13 20v-7h6l.002 7H13zm-8 0h6v-7H5v7zM4 8h7v3H4V8zm4.971-5c.992 0 1.525 1.108 1.794 2H8.971C8.436 5 8 4.552 8 4s.436-1 .971-1zm6.058 0c.535 0 .971.448.971 1s-.436 1-.971 1h-1.794c.269-.893.802-2 1.794-2zM20 11h-7V8h7v3zm0-5h-2.772A2.998 2.998 0 0 0 18 4c0-1.654-1.333-3-2.971-3-1.425 0-2.394.812-3.029 1.847C11.365 1.812 10.396 1 8.971 1 7.333 1 6 2.346 6 4c0 .771.298 1.468.772 2H4c-1.103 0-2 .897-2 2v3c0 .747.417 1.393 1.026 1.736C3.015 12.823 3 12.91 3 13v7c0 1.103.897 2 2 2h14c1.103 0 2-.897 2-2v-7c0-.09-.015-.177-.026-.264A1.994 1.994 0 0 0 22 11V8c0-1.103-.897-2-2-2z"/>
    </defs>
    <use fill="inherit" fill-opacity="1" fill-rule="evenodd" xlink:href="#a"/>
</svg>
