<svg xmlns="http://www.w3.org/2000/svg" xmlns:xlink="http://www.w3.org/1999/xlink" width="24" height="24" viewBox="0 0 24 24">
    <defs>
        <path id="a" d="M19.386 17.135a8.94 8.94 0 0 1-5.794 3.723 8.932 8.932 0 0 1-6.73-1.465c-4.075-2.83-5.088-8.448-2.258-12.525a8.943 8.943 0 0 1 5.795-3.723 8.938 8.938 0 0 1 6.73 1.466 8.943 8.943 0 0 1 3.723 5.794 8.94 8.94 0 0 1-1.466 6.73m3.434-7.085a10.929 10.929 0 0 1-1.791 8.226 10.93 10.93 0 0 1-7.082 4.55 10.915 10.915 0 0 1-8.225-1.79C.74 17.576-.498 10.709 2.962 5.728a10.921 10.921 0 0 1 7.082-4.551c2.89-.52 5.812.115 8.225 1.79a10.927 10.927 0 0 1 4.55 7.083zm-10.825 5.952a1 1 0 1 0 0 2 1 1 0 0 0 0-2zm-.126-10A4.055 4.055 0 0 0 8.052 8.7a1.001 1.001 0 0 0 .61 1.277 1.004 1.004 0 0 0 1.276-.61 2.05 2.05 0 0 1 1.931-1.365 2.05 2.05 0 0 1 2.048 2.048 2.05 2.05 0 0 1-2.048 2.047 1 1 0 0 0-1 1v.905a1 1 0 0 0 2 0v-.03a4.054 4.054 0 0 0 3.048-3.922 4.053 4.053 0 0 0-4.048-4.048z"/>
    </defs>
    <use fill="inherit" fill-opacity="1" fill-rule="evenodd" xlink:href="#a"/>
</svg>
