<svg xmlns="http://www.w3.org/2000/svg" xmlns:xlink="http://www.w3.org/1999/xlink" width="24" height="24" viewBox="0 0 24 24">
    <defs>
        <path id="a" d="M12.051 5.75c.211 0 .422.066.6.2l7 5.25a1 1 0 0 1 .4.8v9.5a1 1 0 0 1-1 1h-5a1 1 0 0 1-1-1v-5h-2v5a1 1 0 0 1-1 1h-5a1 1 0 0 1-1-1V12a1 1 0 0 1 .4-.8l7-5.25a.995.995 0 0 1 .6-.2zm0 2.25l-6 4.5v8h3v-4a2 2 0 0 1 2-2h2a2 2 0 0 1 2 2v4h3v-8l-6-4.5zm10.652 1.2a1 1 0 0 1-1.2 1.6l-8.76-6.57a1.153 1.153 0 0 0-1.384.001L2.599 10.8a1 1 0 0 1-1.2-1.6l8.76-6.569a3.152 3.152 0 0 1 3.785 0L22.703 9.2z"/>
    </defs>
    <use fill="inherit" fill-opacity="1" fill-rule="evenodd" xlink:href="#a"/>
</svg>
