<svg xmlns="http://www.w3.org/2000/svg" width="24" height="24" viewBox="0 0 24 24">
    <path fill="inherit" fill-opacity="1" fill-rule="evenodd" d="M14.427 13.18a1 1 0 0 1 1.146 1.64C14.455 15.603 13.252 16 12 16c-1.252 0-2.455-.397-3.573-1.18a1 1 0 0 1 1.146-1.64c1.553 1.089 3.3 1.089 4.854 0zM15.5 7a1.5 1.5 0 1 1-.001 3.001A1.5 1.5 0 0 1 15.5 7zM10 8.5a1.5 1.5 0 1 1-3.001-.001A1.5 1.5 0 0 1 10 8.5zM12 22c5.514 0 10-4.486 10-10S17.514 2 12 2 2 6.486 2 12s4.486 10 10 10zm0-22c6.627 0 12 5.373 12 12s-5.373 12-12 12S0 18.627 0 12 5.373 0 12 0z"/>
</svg>
