<svg xmlns="http://www.w3.org/2000/svg" xmlns:xlink="http://www.w3.org/1999/xlink" width="24" height="24" viewBox="0 0 24 24">
    <defs>
        <path id="a" d="M11.037 8.339l-2-1.868V3a1.001 1.001 0 0 1 1.575-.818l5.798 4.076a1 1 0 0 1 .106 1.55l-3.027 2.82-1.465-1.367 2.227-2.075-3.214-2.26v3.413zm6.717 8.992l1.05.98a1.002 1.002 0 0 1-.683 1.731 1 1 0 0 1-.683-.269l-1.684-1.572-5.142 3.617a1.005 1.005 0 0 1-1.036.07.999.999 0 0 1-.539-.888v-6.22L5.86 17.741a1 1 0 1 1-1.363-1.463l4.54-4.232v-.117l-4.72-4.405a1.002 1.002 0 0 1-.049-1.414 1.003 1.003 0 0 1 1.415-.049l.622.581c.011.012.015.028.027.038L17.7 17.297c.017.015.037.02.054.034zm-6.717 1.743l3.223-2.268-3.223-3.008v5.276z"/>
    </defs>
    <use fill="inherit" fill-opacity="1" fill-rule="evenodd" xlink:href="#a"/>
</svg>
