<svg xmlns="http://www.w3.org/2000/svg" width="24" height="24" viewBox="0 0 24 24">
    <path fill="inherit" fill-opacity="1" fill-rule="evenodd" d="M14.57 15.415A6.032 6.032 0 0 0 18 10c0-3.308-2.692-6-6-6-3.309 0-6 2.692-6 6a6.03 6.03 0 0 0 3.43 5.415 1 1 0 0 1 .57.903V17h4v-.682c0-.386.221-.737.57-.903zM11 20h2.001v-1h-2v1zm1-18c4.411 0 8 3.589 8 8 0 2.85-1.55 5.5-4 6.92V18a1 1 0 0 1-1 1v1c0 1.103-.898 2-2 2h-2c-1.103 0-2-.897-2-2v-1a1 1 0 0 1-1-1v-1.08C5.55 15.5 4 12.85 4 10c0-4.411 3.59-8 8-8zm0 4a1 1 0 1 1 0 2c-1.103 0-2 .897-2 2a1 1 0 1 1-2 0c0-2.206 1.794-4 4-4z"/>
</svg>
