<svg xmlns="http://www.w3.org/2000/svg" xmlns:xlink="http://www.w3.org/1999/xlink" width="24" height="24" viewBox="0 0 24 24">
    <defs>
        <path id="a" d="M18 20a1 1 0 0 1-1 1H7a1 1 0 0 1-1-1v-8a1 1 0 0 1 1-1h10a1 1 0 0 1 1 1v8zM12 3c1.93 0 3.5 1.57 3.5 3.5V9h-7V6.5C8.5 4.57 10.07 3 12 3zm5.5 6.051A2.997 2.997 0 0 1 20 12v8c0 1.654-1.346 3-3 3H7c-1.654 0-3-1.346-3-3v-8a2.997 2.997 0 0 1 2.5-2.949V6.5C6.5 3.468 8.968 1 12 1s5.5 2.468 5.5 5.5v2.551zM12 14a1 1 0 0 0-1 1v2a1 1 0 1 0 2 0v-2a1 1 0 0 0-1-1z"/>
    </defs>
    <g fill-rule="evenodd">
        <path fill="none" d="M0 0h24v24H0z"/>
        <use fill="inherit" fill-opacity="1" xlink:href="#a"/>
    </g>
</svg>
