<svg xmlns="http://www.w3.org/2000/svg" xmlns:xlink="http://www.w3.org/1999/xlink" width="24" height="24" viewBox="0 0 24 24">
    <defs>
        <path id="a" d="M20 21a1 1 0 1 1-2 0 1 1 0 0 1 2 0M9 12a3 3 0 1 1 6 0 3 3 0 0 1-6 0m-5 8a1 1 0 1 1 0-2 1 1 0 0 1 0 2M21 2a1 1 0 1 1 0 2 1 1 0 0 1 0-2M3 9a1 1 0 1 1 0-2 1 1 0 0 1 0 2m18-3c1.654 0 3-1.346 3-3s-1.346-3-3-3-3 1.346-3 3c0 .462.113.894.301 1.285l-3.548 3.548A4.964 4.964 0 0 0 12 7c-1.675 0-3.15.834-4.059 2.102l-1.964-.873C5.982 8.152 6 8.078 6 8c0-1.654-1.346-3-3-3S0 6.346 0 8s1.346 3 3 3c.855 0 1.624-.364 2.171-.941l1.952.867A4.945 4.945 0 0 0 7 12c0 .897.257 1.729.673 2.458l-2.214 1.937A2.965 2.965 0 0 0 4 16c-1.654 0-3 1.346-3 3s1.346 3 3 3 3-1.346 3-3c0-.392-.08-.763-.217-1.106l2.205-1.93A4.951 4.951 0 0 0 12 17a4.94 4.94 0 0 0 2.206-.536l2.273 2.923A2.973 2.973 0 0 0 16 21c0 1.654 1.346 3 3 3s3-1.346 3-3-1.346-3-3-3c-.33 0-.642.066-.938.165l-2.281-2.931C16.53 14.359 17 13.239 17 12a4.966 4.966 0 0 0-.833-2.753l3.548-3.548c.39.188.823.301 1.285.301"/>
    </defs>
    <use fill="inherit" fill-opacity="1" fill-rule="evenodd" xlink:href="#a"/>
</svg>
