<svg xmlns="http://www.w3.org/2000/svg" xmlns:xlink="http://www.w3.org/1999/xlink" width="24" height="24" viewBox="0 0 24 24">
    <defs>
        <path id="a" d="M21 18c0 .551-.448 1-1 1H4c-.552 0-1-.449-1-1V6c0-.551.448-1 1-1h16c.552 0 1 .449 1 1v12zM20 3c1.654 0 3 1.346 3 3v12c0 1.654-1.346 3-3 3H4c-1.654 0-3-1.346-3-3V6c0-1.654 1.346-3 3-3h16zm-2.678 5.764l-5.029 4.63a.459.459 0 0 1-.586 0l-5.03-4.629a1 1 0 0 0-1.355 1.472l2.788 2.566-1.72 1.792a1 1 0 1 0 1.444 1.384l1.748-1.822.77.71a2.43 2.43 0 0 0 1.647.636c.593 0 1.185-.213 1.648-.637l.771-.709 1.747 1.822a1 1 0 1 0 1.443-1.384l-1.72-1.792 2.79-2.567a1 1 0 1 0-1.356-1.472z"/>
    </defs>
    <use fill="inherit" fill-opacity="1" fill-rule="evenodd" xlink:href="#a"/>
</svg>
