<svg xmlns="http://www.w3.org/2000/svg" xmlns:xlink="http://www.w3.org/1999/xlink" width="24" height="24" viewBox="0 0 24 24">
    <defs>
        <path id="a" d="M18.89 13.288a.999.999 0 0 0-.271.835l.345 2.448-2.434.427a1 1 0 0 0-.711.517L14.66 19.7l-2.221-1.086a1.012 1.012 0 0 0-.88 0L9.34 19.7l-1.158-2.184a1.003 1.003 0 0 0-.711-.517l-2.435-.427.346-2.448a.999.999 0 0 0-.271-.835l-1.72-1.776 1.72-1.777a.998.998 0 0 0 .27-.835l-.345-2.448 2.435-.427c.304-.053.566-.244.71-.516L9.34 3.324l2.22 1.086c.278.135.602.135.88 0l2.22-1.086L15.82 5.51a1 1 0 0 0 .71.516l2.435.427-.345 2.448a.998.998 0 0 0 .27.835l1.72 1.777-1.72 1.776zm3.829-2.472a1 1 0 0 1 0 1.391l-2.052 2.12.413 2.923a1 1 0 0 1-.817 1.125l-2.906.51-1.383 2.606a1 1 0 0 1-1.323.43L12 20.625l-2.65 1.296a.999.999 0 0 1-1.323-.43l-1.383-2.607-2.906-.509a1 1 0 0 1-.818-1.125l.413-2.923-2.051-2.12a1 1 0 0 1 0-1.39l2.05-2.12-.412-2.924a1 1 0 0 1 .818-1.125l2.906-.508 1.383-2.608a.999.999 0 0 1 1.323-.43L12 2.398l2.65-1.296a1 1 0 0 1 1.324.43l1.383 2.608 2.906.508a1 1 0 0 1 .817 1.125l-.413 2.923 2.052 2.12zM12 6.512a1 1 0 0 0-1 1v5a1 1 0 1 0 2 0v-5a1 1 0 0 0-1-1zm0 8a1 1 0 1 0 0 2 1 1 0 1 0 0-2z"/>
    </defs>
    <use fill="inherit" fill-opacity="1" fill-rule="evenodd" xlink:href="#a"/>
</svg>
