<svg xmlns="http://www.w3.org/2000/svg" xmlns:xlink="http://www.w3.org/1999/xlink" width="24" height="24" viewBox="0 0 24 24">
    <defs>
        <path id="a" d="M13.173 10.697a8.843 8.843 0 0 1 5.553 2.657 1 1 0 0 1-1.432 1.395 6.92 6.92 0 0 0-2.24-1.538l-1.88-2.514zm10.222-2.264a1 1 0 1 1-1.433 1.395c-2.553-2.622-5.983-4.066-9.656-4.066-.893 0-1.77.098-2.624.27l-1.31-1.75a15.563 15.563 0 0 1 3.934-.52c4.218 0 8.156 1.658 11.089 4.671zM5.225 3.416L17.62 19.979a.994.994 0 0 1-1.628 1.143l-1.48-1.977a.98.98 0 0 1-.28.616l-1.162 1.153a.997.997 0 0 1-1.393.015l-1.22-1.161a1.003 1.003 0 0 1-.022-1.427c.812-.822 2.116-.971 3.123-.47l-3.592-4.802a6.888 6.888 0 0 0-2.587 1.648 1 1 0 0 1-1.424-1.405 8.905 8.905 0 0 1 2.768-1.903L5.763 7.452a13.429 13.429 0 0 0-3.051 2.314A1 1 0 0 1 1.288 8.36a15.482 15.482 0 0 1 3.27-2.517l-.931-1.245a.998.998 0 1 1 1.582-1.217c.007.01.008.023.016.034z"/>
    </defs>
    <use fill="inherit" fill-opacity="1" fill-rule="evenodd" xlink:href="#a"/>
</svg>
