<svg xmlns="http://www.w3.org/2000/svg" xmlns:xlink="http://www.w3.org/1999/xlink" width="24" height="24" viewBox="0 0 24 24">
    <defs>
        <path id="a" d="M18.668 3.557c3.757 3.356 4.421 9.01 1.546 13.147a9.93 9.93 0 0 1-6.438 4.136 9.917 9.917 0 0 1-7.477-1.627 9.935 9.935 0 0 1-4.138-6.438 9.941 9.941 0 0 1 3.173-9.216A1 1 0 1 1 6.67 5.047a7.947 7.947 0 0 0-2.54 7.373 7.95 7.95 0 0 0 3.309 5.15 7.944 7.944 0 0 0 5.983 1.302 7.937 7.937 0 0 0 5.149-3.308 8 8 0 0 0-1.235-10.517.999.999 0 1 1 1.332-1.49zM12.002 13a1 1 0 0 1-1-1V3a1 1 0 1 1 2 0v9a1 1 0 0 1-1 1z"/>
    </defs>
    <use fill="inherit" fill-opacity="1" fill-rule="evenodd" xlink:href="#a"/>
</svg>
