<svg xmlns="http://www.w3.org/2000/svg" xmlns:xlink="http://www.w3.org/1999/xlink" width="24" height="24" viewBox="0 0 24 24">
    <defs>
        <path id="a" d="M20 18a1 1 0 0 1-1 1H5a1 1 0 0 1-1-1V6a1 1 0 0 1 1-1h14a1 1 0 0 1 1 1v12zM19 3c1.654 0 3 1.346 3 3v12c0 1.654-1.346 3-3 3H5c-1.654 0-3-1.346-3-3V6c0-1.654 1.346-3 3-3h14zm-4.168 7.445c-.371-.557-1.293-.557-1.664 0L10 15.197l-1.168-1.752c-.371-.557-1.293-.557-1.664 0l-2 3A1 1 0 0 0 6 18h12a1 1 0 0 0 .832-1.555l-4-6z"/>
    </defs>
    <use fill="inherit" fill-opacity="1" fill-rule="evenodd" xlink:href="#a"/>
</svg>
