<svg xmlns="http://www.w3.org/2000/svg" width="24" height="24" viewBox="0 0 24 24">
    <g fill-rule="evenodd">
        <path fill="none" d="M0 0h24v24H0z"/>
        <path fill="inherit" fill-opacity="1" d="M15 4.414V7h2.586L15 4.414zM19 9h-4a2 2 0 0 1-2-2V3H6a1 1 0 0 0-1 1v16a1 1 0 0 0 1 1h12a1 1 0 0 0 1-1V9zm-5.828-8a3 3 0 0 1 2.121.879l4.828 4.828A3 3 0 0 1 21 8.828V20a3 3 0 0 1-3 3H6a3 3 0 0 1-3-3V4a3 3 0 0 1 3-3h7.172zM16 12a1 1 0 0 1 0 2H8a1 1 0 0 1 0-2h8zm0 4a1 1 0 0 1 0 2H8a1 1 0 0 1 0-2h8zm-6-8a1 1 0 0 1 0 2H8a1 1 0 1 1 0-2h2z"/>
    </g>
</svg>
