<svg xmlns="http://www.w3.org/2000/svg" xmlns:xlink="http://www.w3.org/1999/xlink" width="24" height="24" viewBox="0 0 24 24">
    <defs>
        <path id="a" d="M22 18a1 1 0 0 1-1 1H3a1 1 0 0 1-1-1V6a1 1 0 0 1 1-1h18a1 1 0 0 1 1 1v12zM3 3h18c1.654 0 3 1.346 3 3v12c0 1.654-1.346 3-3 3H3c-1.654 0-3-1.346-3-3V6c0-1.654 1.346-3 3-3zm4.207 8.5l.561-.561a.5.5 0 0 0-.707-.707l-.561.561V10a.5.5 0 0 0-1 0v.793l-.561-.561a.5.5 0 0 0-.707.707l.561.561H4a.5.5 0 0 0 0 1h.793l-.561.561a.5.5 0 0 0 .707.707l.561-.561V14a.5.5 0 0 0 1 0v-.793l.561.561a.498.498 0 0 0 .707 0 .5.5 0 0 0 0-.707l-.561-.561H8a.5.5 0 0 0 0-1h-.793zm6 0l.561-.561a.5.5 0 0 0-.707-.707l-.561.561V10a.5.5 0 0 0-1 0v.793l-.561-.561a.5.5 0 0 0-.707.707l.561.561H10a.5.5 0 0 0 0 1h.793l-.561.561a.5.5 0 0 0 .707.707l.561-.561V14a.5.5 0 0 0 1 0v-.793l.561.561a.498.498 0 0 0 .707 0 .5.5 0 0 0 0-.707l-.561-.561H14a.5.5 0 0 0 0-1h-.793zm6 0l.561-.561a.5.5 0 0 0-.707-.707l-.561.561V10a.5.5 0 0 0-1 0v.793l-.561-.561a.5.5 0 0 0-.707.707l.561.561H16a.5.5 0 0 0 0 1h.793l-.561.561a.5.5 0 0 0 .707.707l.561-.561V14a.5.5 0 0 0 1 0v-.793l.561.561a.498.498 0 0 0 .707 0 .5.5 0 0 0 0-.707l-.561-.561H20a.5.5 0 0 0 0-1h-.793z"/>
    </defs>
    <use fill="inherit" fill-opacity="1" fill-rule="evenodd" xlink:href="#a"/>
</svg>
