<svg xmlns="http://www.w3.org/2000/svg" xmlns:xlink="http://www.w3.org/1999/xlink" width="24" height="24" viewBox="0 0 24 24">
    <defs>
        <path id="a" d="M20.065 13.008a.996.996 0 0 0-1.117.867 6.92 6.92 0 0 1-1.198 3.117 6.952 6.952 0 0 1-4.507 2.897 6.967 6.967 0 0 1-5.234-1.14 6.952 6.952 0 0 1-2.896-4.507 6.954 6.954 0 0 1 1.14-5.234c2.201-3.17 6.571-3.957 9.741-1.757.323.225.616.48.892.749h-2.884a1 1 0 1 0 0 2h5c.013 0 .026-.008.04-.008l.036-.007A.992.992 0 0 0 20.002 9V4a1 1 0 1 0-2 0v2.298a9.1 9.1 0 0 0-.867-.69C13.06 2.779 7.44 3.793 4.61 7.868a8.94 8.94 0 0 0-1.465 6.73 8.936 8.936 0 0 0 3.724 5.795 8.933 8.933 0 0 0 6.73 1.465 8.94 8.94 0 0 0 5.793-3.724 9.021 9.021 0 0 0 1.54-4.008.999.999 0 0 0-.867-1.117"/>
    </defs>
    <use fill="inherit" fill-opacity="1" fill-rule="evenodd" xlink:href="#a"/>
</svg>
