<svg xmlns="http://www.w3.org/2000/svg" xmlns:xlink="http://www.w3.org/1999/xlink" width="24" height="24" viewBox="0 0 24 24">
    <defs>
        <path id="a" d="M18.571 16.564a7.95 7.95 0 0 1-5.15 3.309 7.938 7.938 0 0 1-5.982-1.302A7.942 7.942 0 0 1 4.13 13.42a7.946 7.946 0 0 1 1.301-5.982 7.947 7.947 0 0 1 5.151-3.31A8.13 8.13 0 0 1 12.018 4c1.616 0 3.192.489 4.547 1.43 3.622 2.517 4.523 7.511 2.006 11.134m-.865-12.776c4.528 3.145 5.653 9.388 2.508 13.917a9.932 9.932 0 0 1-6.438 4.135A9.916 9.916 0 0 1 6.3 20.213a9.927 9.927 0 0 1-4.138-6.438A9.932 9.932 0 0 1 3.79 6.297a9.93 9.93 0 0 1 6.438-4.137 9.952 9.952 0 0 1 7.48 1.628zm-2.169 4.677a.999.999 0 0 0-1.414 0l-2.121 2.121-2.121-2.12a.999.999 0 1 0-1.414 1.413L10.588 12l-2.121 2.121a.999.999 0 1 0 1.414 1.414l2.121-2.12 2.121 2.12a.993.993 0 0 0 .707.293.999.999 0 0 0 .707-1.707l-2.121-2.12 2.121-2.122a.999.999 0 0 0 0-1.414z"/>
    </defs>
    <use fill="inherit" fill-opacity="1" fill-rule="evenodd" xlink:href="#a"/>
</svg>
