<svg xmlns="http://www.w3.org/2000/svg" xmlns:xlink="http://www.w3.org/1999/xlink" width="24" height="24" viewBox="0 0 24 24">
    <defs>
        <path id="a" d="M19 18.586l-.279-.279a1.033 1.033 0 0 0-1.442 0L16 19.586l-1.279-1.279a1.015 1.015 0 0 0-.721-.293c-.263 0-.525.097-.721.293L12 19.586l-1.279-1.279a1.033 1.033 0 0 0-1.442 0L8 19.586l-1.279-1.279a1.033 1.033 0 0 0-1.442 0l-.276.276L5.019 4H19v14.586zM19 2c1.103 0 2 .898 2 2v16.954c0 .404-.255.787-.629.942a1.035 1.035 0 0 1-1.11-.221L18 20.414l-1.279 1.279a1.015 1.015 0 0 1-.721.293c-.263 0-.525-.097-.721-.293L14 20.414l-1.279 1.279a1.033 1.033 0 0 1-1.442 0L10 20.414l-1.279 1.279a1.033 1.033 0 0 1-1.442 0L6 20.414l-1.261 1.261a1.036 1.036 0 0 1-1.11.221A1.036 1.036 0 0 1 3 20.954V4.019A2.02 2.02 0 0 1 5.019 2H19zM8 8h8a1 1 0 1 0 0-2H8a1 1 0 1 0 0 2zm4 4a1 1 0 1 0 0-2H8a1 1 0 1 0 0 2h4zm-4 4h6a1 1 0 1 0 0-2H8a1 1 0 1 0 0 2z"/>
    </defs>
    <use fill="inherit" fill-opacity="1" fill-rule="evenodd" xlink:href="#a"/>
</svg>
