<svg xmlns="http://www.w3.org/2000/svg" xmlns:xlink="http://www.w3.org/1999/xlink" width="24" height="24" viewBox="0 0 24 24">
    <defs>
        <path id="a" d="M18.683 5.93c.159.137.325.266.474.414 3.118 3.119 3.118 8.195 0 11.315a7.929 7.929 0 0 1-4.528 2.262 1 1 0 0 1-.279-1.98 5.945 5.945 0 0 0 3.393-1.697 6.01 6.01 0 0 0 0-8.486c-.13-.13-.274-.244-.414-.361v1.776a1 1 0 1 1-2 0V4.93a1 1 0 0 1 1-1h4.242a1 1 0 1 1 0 2h-1.888zM9.37 4.081a1 1 0 0 1 .279 1.98 5.939 5.939 0 0 0-3.392 1.697 6.008 6.008 0 0 0 0 8.486c.13.13.273.244.414.361V14.83a1 1 0 1 1 2 0v4.243a1 1 0 0 1-1 1H3.43a1 1 0 1 1 0-2h1.887c-.159-.137-.325-.265-.473-.414-3.119-3.119-3.119-8.195 0-11.314a7.919 7.919 0 0 1 4.527-2.263zM12 7.001a1 1 0 0 1 1 1v5a1 1 0 1 1-2 0v-5a1 1 0 0 1 1-1zm0 8a1 1 0 1 1 0 2 1 1 0 1 1 0-2z"/>
    </defs>
    <use fill="inherit" fill-opacity="1" fill-rule="evenodd" xlink:href="#a"/>
</svg>
