<svg xmlns="http://www.w3.org/2000/svg" width="24" height="24" viewBox="0 0 24 24">
  <path fill="none" d="M0 0h24v24H0z"/>
  <path fill="inherit" fill-opacity="1" d="M16 19c0-.363.105-.7.275-.995l.009-.011c.003-.004.002-.009.005-.013.35-.585.982-.981 1.711-.981 1.103 0 2 .897 2 2s-.897 2-2 2-2-.897-2-2zM4 12c0-1.103.897-2 2-2s2 .897 2 2-.897 2-2 2-2-.897-2-2zm16-7c0 1.103-.897 2-2 2s-2-.897-2-2 .897-2 2-2 2 .897 2 2zm-4.836 11.184l-5.33-3.107c.098-.345.166-.701.166-1.077s-.068-.733-.166-1.078l5.326-3.11A3.987 3.987 0 0 0 18 9c2.206 0 4-1.794 4-4s-1.794-4-4-4-4 1.794-4 4c0 .376.068.733.166 1.078L8.84 9.187A3.99 3.99 0 0 0 6 8c-2.206 0-4 1.794-4 4s1.794 4 4 4a3.988 3.988 0 0 0 2.839-1.187l5.329 3.105A3.92 3.92 0 0 0 14 19c0 2.206 1.794 4 4 4s4-1.794 4-4-1.794-4-4-4a3.984 3.984 0 0 0-2.836 1.184z"/>
</svg>
