<svg xmlns="http://www.w3.org/2000/svg" width="24" height="24" viewBox="0 0 24 24">
    <path fill="inherit" fill-opacity="1" fill-rule="evenodd" d="M20 19V7H4v12c0 1.103.897 2 2 2h12c1.103 0 2-.897 2-2zM6.2 3.4L5 5h14l-1.2-1.6A1.004 1.004 0 0 0 17 3H7c-.313 0-.612.149-.8.399V3.4zm15 1.2c.516.69.8 1.542.8 2.4v12c0 2.206-1.794 4-4 4H6c-2.206 0-4-1.794-4-4V7c0-.858.284-1.71.799-2.398L4.601 2.2A3.009 3.009 0 0 1 7 1h10c.939 0 1.837.448 2.399 1.2L21.2 4.6zM12 15c-2.757 0-5-2.243-5-5a1 1 0 1 1 2 0c0 1.654 1.346 3 3 3s3-1.346 3-3a1 1 0 1 1 2 0c0 2.757-2.243 5-5 5z"/>
</svg>
