<svg xmlns="http://www.w3.org/2000/svg" xmlns:xlink="http://www.w3.org/1999/xlink" width="24" height="24" viewBox="0 0 24 24">
    <defs>
        <path id="a" d="M19 21l-4 .048v-4.762a1 1 0 0 0-1-1h-4a1 1 0 0 0-1 1V21l-4 .048V13c0-.062-.024-.115-.035-.173A2.993 2.993 0 0 0 6 12.22 2.98 2.98 0 0 0 8 13a2.98 2.98 0 0 0 2-.78 2.98 2.98 0 0 0 2 .78 2.98 2.98 0 0 0 2-.78 2.98 2.98 0 0 0 2 .78 2.98 2.98 0 0 0 2-.78c.298.268.647.474 1.035.607-.011.058-.035.111-.035.173v8zM5.566 6h12.868l2.524 4.207c-.099.449-.479.793-.958.793-.552 0-1-.449-1-1a1 1 0 1 0-2 0 1.001 1.001 0 0 1-2 0 1 1 0 1 0-2 0 1.001 1.001 0 0 1-2 0 1 1 0 1 0-2 0 1.001 1.001 0 0 1-2 0 1 1 0 1 0-2 0c0 .551-.448 1-1 1-.479 0-.859-.344-.958-.793L5.566 6zM23 10a2.995 2.995 0 0 1-2.035 2.827c.011.058.035.111.035.173v8.048C21 22.125 20.103 23 19 23h-4c-1.103 0-2-.875-2-1.952v-3.762h-2v3.761C11 22.124 10.103 23 9 23H5c-1.103 0-2-.875-2-1.952V13c0-.062.024-.115.035-.173A2.995 2.995 0 0 1 1 10c0-.024.012-.043.014-.067a.936.936 0 0 1 .039-.195.912.912 0 0 1 .067-.188c.011-.021.011-.044.023-.065l3-5A.997.997 0 0 1 5 4h14c.352 0 .677.184.857.485l3 5c.012.021.012.044.023.064.031.06.049.123.067.189.018.066.035.128.039.195.002.024.014.043.014.067zM5 3a1 1 0 1 1 0-2h14a1 1 0 1 1 0 2H5z"/>
    </defs>
    <use fill="inherit" fill-opacity="1" fill-rule="evenodd" xlink:href="#a"/>
</svg>
