<svg xmlns="http://www.w3.org/2000/svg" xmlns:xlink="http://www.w3.org/1999/xlink" width="24" height="24" viewBox="0 0 24 24">
    <defs>
        <path id="a" d="M23.395 8.171a1 1 0 1 1-1.433 1.395C19.409 6.944 15.979 5.5 12.306 5.5c-3.64 0-7.048 1.422-9.594 4.003a1 1 0 1 1-1.424-1.404C4.213 5.133 8.126 3.5 12.306 3.5c4.218 0 8.156 1.658 11.089 4.671zM12.32 10.393c2.436 0 4.711.958 6.405 2.699a1 1 0 1 1-1.432 1.395 6.886 6.886 0 0 0-4.973-2.094c-1.875 0-3.63.732-4.94 2.062a1 1 0 0 1-1.425-1.405 8.87 8.87 0 0 1 6.365-2.657zm-1.885 7.685c1.013-1.026 2.8-1.02 3.81.012a.999.999 0 0 1-.012 1.408l-1.163 1.153a1.002 1.002 0 0 1-1.394.015l-1.219-1.16a1 1 0 0 1-.022-1.427z"/>
    </defs>
    <use fill="inherit" fill-opacity="1" fill-rule="evenodd" xlink:href="#a"/>
</svg>
