<svg xmlns="http://www.w3.org/2000/svg" xmlns:xlink="http://www.w3.org/1999/xlink" width="24" height="24" viewBox="0 0 24 24">
    <defs>
        <path id="a" d="M21.926 8.244c-.021.054-.058.096-.088.145-.03.05-.051.105-.091.15l-3 3.376a.995.995 0 0 1-1.411.083.999.999 0 0 1-.083-1.411l1.52-1.711H8a1 1 0 1 1 0-2h10.774l-1.521-1.711a.999.999 0 1 1 1.494-1.328l3 3.375c.04.046.06.1.09.15.03.049.068.092.089.147a.99.99 0 0 1 .072.355l.002.012-.002.012a1 1 0 0 1-.072.356zM16 14.876a1 1 0 1 1 0 2H5.227l1.52 1.71a.999.999 0 1 1-1.494 1.329l-3-3.375c-.041-.046-.061-.102-.092-.151-.029-.05-.065-.091-.087-.145a1 1 0 0 1-.072-.356L2 15.876l.002-.012a1 1 0 0 1 .072-.356c.022-.054.058-.096.088-.145.03-.05.051-.105.091-.151l3-3.375a.999.999 0 1 1 1.494 1.328l-1.52 1.71H16z"/>
    </defs>
    <use fill="inherit" fill-opacity="1" fill-rule="evenodd" xlink:href="#a"/>
</svg>
