<svg xmlns="http://www.w3.org/2000/svg" width="24" height="24" viewBox="0 0 24 24">
    <path fill="inherit" fill-opacity="1" fill-rule="evenodd" d="M20.73 12.216l-7.94-7.94a.992.992 0 0 0-.7-.292H4.976a.992.992 0 0 0-.992.992v7.115a.99.99 0 0 0 .291.702l7.939 7.931a.991.991 0 0 0 1.402.002l7.113-7.114a.992.992 0 0 0 .001-1.396zm1.405 2.795l-.002.003-7.114 7.115a2.974 2.974 0 0 1-4.206 0l-7.94-7.932A2.975 2.975 0 0 1 2 12.091V4.976A2.976 2.976 0 0 1 4.976 2h7.114c.788 0 1.546.314 2.103.872l7.942 7.943a2.978 2.978 0 0 1 0 4.196zM8.943 7.457a1.489 1.489 0 1 1-2.977-.001 1.489 1.489 0 0 1 2.977 0z"/>
</svg>
