<svg xmlns="http://www.w3.org/2000/svg" xmlns:xlink="http://www.w3.org/1999/xlink" width="24" height="24" viewBox="0 0 24 24">
    <defs>
        <path id="a" d="M17 3h3c1.654 0 3 1.346 3 3v12c0 1.654-1.346 3-3 3H4c-1.654 0-3-1.346-3-3V6c0-1.654 1.346-3 3-3h3a1 1 0 1 1 0 2H4a1 1 0 0 0-1 1v12a1 1 0 0 0 1 1h16a1 1 0 0 0 1-1V6a1 1 0 0 0-1-1h-3a1 1 0 1 1 0-2zm-8.293 8.293L11 13.586V4a1 1 0 1 1 2 0v9.586l2.293-2.293a.999.999 0 1 1 1.414 1.414l-4 4a.997.997 0 0 1-1.414 0l-4-4a.999.999 0 1 1 1.414-1.414z"/>
    </defs>
    <use fill="inherit" fill-opacity="1" fill-rule="evenodd" xlink:href="#a"/>
</svg>
