<svg xmlns="http://www.w3.org/2000/svg" xmlns:xlink="http://www.w3.org/1999/xlink" width="24" height="24" viewBox="0 0 24 24">
    <defs>
        <path id="a" d="M11.923 23a10.941 10.941 0 0 1-6.197-1.965C.737 17.57-.499 10.716 2.966 5.726A10.985 10.985 0 0 1 12.01 1c2.165 0 4.351.637 6.264 1.966 4.989 3.466 6.225 10.32 2.759 15.308A10.99 10.99 0 0 1 12.053 23h-.13zM4.609 6.867a9.004 9.004 0 0 0 .228 10.585 8.299 8.299 0 0 1 3.841-3.714 4.999 4.999 0 0 1 3.321-8.737 5 5 0 0 1 3.322 8.737 8.312 8.312 0 0 1 3.84 3.71A8.999 8.999 0 1 0 4.609 6.867zM9 10a3 3 0 0 0 2.971 3h.058A3 3 0 1 0 9 10zm3.033 5h-.066c-2.491.014-4.697 1.615-5.636 3.99.172.14.351.274.536.402 3.366 2.338 7.771 2.06 10.801-.4-.938-2.377-3.144-3.978-5.635-3.993z"/>
    </defs>
    <use fill="inherit" fill-opacity="1" fill-rule="evenodd" xlink:href="#a"/>
</svg>
