<svg xmlns="http://www.w3.org/2000/svg" xmlns:xlink="http://www.w3.org/1999/xlink" width="24" height="24" viewBox="0 0 24 24">
    <defs>
        <path id="a" d="M18.058 17.84c-.347.582-2.764 2.088-6 2.088s-5.653-1.506-6-2.088v-5.69l4.863 1.655a3.524 3.524 0 0 0 2.274 0l4.863-1.655v5.69zM2 8.495c0-.157.122-.2.162-.213l9.404-3.202a1.556 1.556 0 0 1 .984 0l9.404 3.201c.04.014.162.056.162.214 0 .16-.122.202-.162.216l-9.404 3.201a1.535 1.535 0 0 1-.984 0L2.162 8.71C2.122 8.697 2 8.655 2 8.495zm22.116 0a2.2 2.2 0 0 0-1.518-2.105l-9.403-3.202a3.541 3.541 0 0 0-2.274 0L1.518 6.389A2.2 2.2 0 0 0 0 8.495c0 .968.596 1.795 1.518 2.109l2.54.865v6.469c0 1.939 4.112 3.99 8 3.99s8-2.052 8-3.99v-6.47l1-.34v2.8a1 1 0 1 0 2 0v-3.565a2.176 2.176 0 0 0 1.058-1.867z"/>
    </defs>
    <use fill="inherit" fill-opacity="1" fill-rule="evenodd" xlink:href="#a"/>
</svg>
