<svg xmlns="http://www.w3.org/2000/svg" width="24" height="24" viewBox="0 0 24 24">
    <path fill="inherit" fill-opacity="1" fill-rule="evenodd" d="M12 19c4.025 0 7.365-2.717 9.789-6.467a.974.974 0 0 0 0-1.066C19.365 7.718 16.025 5 12 5c-4.025 0-7.364 2.717-9.788 6.466a.974.974 0 0 0 0 1.067C4.637 16.283 7.975 19 12 19zM.475 13.598a2.932 2.932 0 0 1 0-3.197C3.238 6.127 7.08 3.001 12 3.001s8.763 3.127 11.527 7.401c.631.98.631 2.216 0 3.196C20.762 17.873 16.92 21 12 21 7.08 21 3.24 17.874.475 13.598zM12 10c-1.134 0-2.053.895-2.053 2s.92 2 2.053 2c1.134 0 2.053-.895 2.053-2s-.919-2-2.053-2zm0-2c2.268 0 4.105 1.79 4.105 4S14.268 16 12 16c-2.267 0-4.105-1.79-4.105-4S9.733 8 12 8z"/>
</svg>
